_________________________  Visit us at _________________________
  
http://p2pdl.com  ____________________________  http://p2pdl.com


The Haunting In Connecticut 2 Ghosts Of Georgia 2013 BRRip 720p x264 AAC - PRiSTiNE [P2PDL]


Genre: Drama | Horror | Thriller
Plot: A young family moves into an historic home 
in Georgia, only to learn they are not the house's 
only inhabitants. Soon they find themselves in the 
presence of a secret rising from underground and 
threatening to bring down anyone in its path.
Director: Tom Elkins
Stars: Abigail Spencer, Emily Alyn Lind, Chad Michael Murray
Rated: Rated R for some disturbing horror content

Info: 
http://www.imdb.com/title/tt1457765/

General
Complete name                  : The Haunting In Connecticut 2 Ghosts Of Georgia 2013 BRRip 720p x264 - PRiSTiNE.mp4
Format                         : MPEG-4
File size                      : 636 MiB
Duration                       : 1h 40mn
Overall bit rate mode          : Variable
Overall bit rate               : 881 Kbps

Video
Format                         : AVC
Format/Info                    : Advanced Video Codec
Format profile                 : High 10@L4.1
Bit rate                       : 798 Kbps
Width                          : 1 280 pixels
Height                         : 536 pixels
Display aspect ratio           : 2.40:1
Frame rate mode                : Constant
Frame rate                     : 23.976 fps
Bit depth                      : 10 bits
Stream size                    : 576 MiB (90%)
Writing library                : x264 core 130 r2273 b3065e6

Audio
Format                         : AAC
Format/Info                    : Advanced Audio Codec
Bit rate mode                  : Variable
Bit rate                       : 80.0 Kbps
Channel(s)                     : 2 channels
Channel positions              : Front: L R
Sampling rate                  : 48.0 KHz
Stream size                    : 57.8 MiB (9%)
Language                       : English

Subtitle                       : Yes (English)
Source                         : 720p BluRay DTS x264-TayTO (Thanks)

Screenshots:
 
http://www.ultraimg.com/images/OJ96.jpg 
http://www.ultraimg.com/images/r54GC.jpg 
http://www.ultraimg.com/images/8LujK.jpg 
http://www.ultraimg.com/images/uta5v.jpg 
http://www.ultraimg.com/images/w8ix1.jpg

----------------------------------------------------------------------------------------------------


Encoded using revolutionary 10bit encoding, which enables us to provide you more crispier 
and sharper images at small sizes, just make sure you follow our instructions without a fault.
Recommend to you to use latest version of VLC player. Install K-Lite Codec Pack or shark007 codecs
in case of any kind of problem in playback (For non-VLC Media Player users). Alternatively, install
Core AVC codecs, the fastest decoder that there is coupled with Community Center Codec Pack and play
on Windows Media Player Classic. Check sample to be sure.
Enjoy!

Encoder Notes:Looking For Early Access To Anything You Can Provide DVDScr, R5, DVDR, BluRay, Direct
Audio, Music Releases and Seedboxes. We require dedicated servers, so as to do more 
and fast releases of movies.
If You Got anything to offer please contact us at "prg@hush.com".

Face book Fan Page:   
http://www.fb.me/p2pdl